<?xml version="1.0" encoding="UTF-8" standalone="no"?>
<!-- Created with Inkscape (http://www.inkscape.org/) -->

<svg
   xmlns:dc="http://purl.org/dc/elements/1.1/"
   xmlns:cc="http://creativecommons.org/ns#"
   xmlns:rdf="http://www.w3.org/1999/02/22-rdf-syntax-ns#"
   xmlns:svg="http://www.w3.org/2000/svg"
   xmlns="http://www.w3.org/2000/svg"
   xmlns:sodipodi="http://sodipodi.sourceforge.net/DTD/sodipodi-0.dtd"
   xmlns:inkscape="http://www.inkscape.org/namespaces/inkscape"
   width="744.09448819"
   height="1052.3622047"
   id="svg2"
   version="1.1"
   inkscape:version="0.48.5 r10040"
   sodipodi:docname="icon.svg">
  <defs
     id="defs4" />
  <sodipodi:namedview
     id="base"
     pagecolor="#ffffff"
     bordercolor="#666666"
     borderopacity="1.0"
     inkscape:pageopacity="0.0"
     inkscape:pageshadow="2"
     inkscape:zoom="0.9899495"
     inkscape:cx="617.50154"
     inkscape:cy="494.86461"
     inkscape:document-units="px"
     inkscape:current-layer="layer1"
     showgrid="false"
     inkscape:window-width="1680"
     inkscape:window-height="952"
     inkscape:window-x="0"
     inkscape:window-y="28"
     inkscape:window-maximized="1" />
  <metadata
     id="metadata7">
    <rdf:RDF>
      <cc:Work
         rdf:about="">
        <dc:format>image/svg+xml</dc:format>
        <dc:type
           rdf:resource="http://purl.org/dc/dcmitype/StillImage" />
        <dc:title></dc:title>
      </cc:Work>
    </rdf:RDF>
  </metadata>
  <g
     inkscape:label="Layer 1"
     inkscape:groupmode="layer"
     id="layer1">
    <rect
       style="fill:#7f0000;fill-opacity:0.50196081;stroke-width:16;stroke-miterlimit:4;stroke-dasharray:none"
       id="rect3856"
       width="128"
       height="128"
       x="108.57143"
       y="448.64789"
       inkscape:export-filename="/home/michal/tests/improved-enigma/icon2.png"
       inkscape:export-xdpi="90"
       inkscape:export-ydpi="90" />
    <path
       sodipodi:type="star"
       style="fill:#007f80;fill-opacity:1;fill-rule:evenodd;stroke:#000000;stroke-width:18.4567852;stroke-linecap:round;stroke-linejoin:round;stroke-miterlimit:4;stroke-opacity:1;stroke-dasharray:none"
       id="path3086"
       sodipodi:sides="3"
       sodipodi:cx="575.71429"
       sodipodi:cy="240.93361"
       sodipodi:r1="230.4222"
       sodipodi:r2="115.2111"
       sodipodi:arg1="0.54414091"
       sodipodi:arg2="1.5913385"
       inkscape:flatsided="false"
       inkscape:rounded="0"
       inkscape:randomized="0"
       d="M 772.85715,360.21932 573.34777,356.1204 373.83841,352.02147 477.14287,181.29075 580.44733,10.560029 676.65224,185.38968 z"
       inkscape:transform-center-x="-0.32456552"
       inkscape:transform-center-y="39.799188"
       transform="matrix(0.22993799,0.00645027,0.00564122,-0.2629148,38.728037,557.23421)"
       inkscape:export-filename="/home/michal/tests/improved-enigma/icon2.png"
       inkscape:export-xdpi="90"
       inkscape:export-ydpi="90" />
    <path
       style="fill:#000000"
       d="m 171.49571,501.38076 c 0,-1.24749 -0.0636,-2.26816 -0.14146,-2.26816 -0.35589,0 -4.63859,-1.11154 -5.13314,-1.33226 -0.42364,-0.18908 -0.83931,0.27474 -1.75645,1.95988 -0.66082,1.21417 -1.243,2.26651 -1.29374,2.33852 -0.0507,0.072 -0.76316,-0.40515 -1.58315,-1.06038 l -1.4909,-1.19132 0.92439,-1.58581 c 0.50842,-0.8722 1.01807,-1.77377 1.13256,-2.00349 0.11826,-0.23731 -0.5618,-1.03356 -1.57481,-1.84386 -0.98063,-0.7844 -2.22973,-2.01713 -2.77577,-2.73941 l -0.9928,-1.31324 -1.88986,1.7244 -1.88985,1.7244 -1.08402,-1.56664 -1.08402,-1.56663 1.25689,-1.15897 c 0.69129,-0.63743 1.60781,-1.49951 2.03671,-1.91573 l 0.77981,-0.75677 -0.66407,-1.70041 c -1.03961,-2.66196 -0.96498,-2.83149 1.4763,-3.35392 1.18508,-0.2536 2.19276,-0.41059 2.23929,-0.34886 0.0465,0.0617 0.48734,1.04306 0.97957,2.18075 1.27922,2.95665 4.52623,6.59082 7.0993,7.94581 3.53291,1.86045 8.08415,2.14035 11.89042,0.73127 3.48284,-1.28935 6.96955,-4.84279 8.63795,-8.80329 l 0.88666,-2.10477 1.85323,0.78947 c 2.46938,1.05192 2.56769,1.19486 1.91508,2.78427 -0.30255,0.73684 -0.55008,1.49854 -0.55008,1.69267 0,0.19412 0.80559,1.05935 1.79021,1.92273 0.98461,0.86337 1.7902,1.73079 1.7902,1.9276 0,0.4738 -1.63641,2.95358 -1.94906,2.95358 -0.13439,0 -1.00631,-0.70461 -1.93759,-1.56579 l -1.69325,-1.56578 -1.52282,1.69566 c -0.83755,0.93261 -1.7558,1.9286 -2.04055,2.2133 -0.46599,0.46591 -0.39349,0.74088 0.72553,2.75167 l 1.24326,2.23402 -0.72553,0.65336 c -1.23222,1.10964 -2.25851,1.62564 -2.47575,1.24478 -0.1115,-0.19547 -0.69403,-1.23371 -1.29451,-2.30719 -0.60048,-1.07348 -1.11313,-1.9517 -1.13922,-1.9516 -0.0261,1.1e-4 -0.78,0.32357 -1.67534,0.7188 -0.89534,0.39523 -2.32344,0.83974 -3.17355,0.9878 l -1.54565,0.26919 0,2.41426 0,2.41425 -1.79021,0 -1.79021,0 z"
       id="path3082"
       inkscape:connector-curvature="0"
       sodipodi:nodetypes="sssscscsssscccccsscsscsssscssssssscssscssscsscccccs"
       inkscape:export-filename="/home/michal/tests/improved-enigma/icon2.png"
       inkscape:export-xdpi="90"
       inkscape:export-ydpi="90" />
  </g>
</svg>
